<svg height='300px' width='300px'  fill="#000000" xmlns="http://www.w3.org/2000/svg" xmlns:xlink="http://www.w3.org/1999/xlink" version="1.1" x="0px" y="0px" viewBox="0 0 32 32" enable-background="new 0 0 32 32" xml:space="preserve"><path fill="#000000" d="M11.5,8.4V5.9c0-0.6,0.4-1,1-1s1,0.4,1,1v2.5c0,0.6-0.4,1-1,1S11.5,9,11.5,8.4z M16.8,11  c0.2,0,0.5-0.1,0.7-0.3l1.7-1.6c0.4-0.4,0.4-1,0-1.4c-0.4-0.4-1-0.4-1.4,0l-1.7,1.6c-0.4,0.4-0.4,1,0,1.4C16.3,10.9,16.5,11,16.8,11  z M7.5,10.7C7.7,10.9,8,11,8.2,11c0.3,0,0.5-0.1,0.7-0.3c0.4-0.4,0.4-1,0-1.4L7.2,7.7c-0.4-0.4-1-0.4-1.4,0c-0.4,0.4-0.4,1,0,1.4  L7.5,10.7z M7.5,14.4c0-0.6-0.4-1-1-1H4.1c-0.6,0-1,0.4-1,1s0.4,1,1,1h2.4C7.1,15.4,7.5,15,7.5,14.4z M28.3,21.9  c0.1,0.3,0.1,0.6,0.1,0.8c0,2.6-2.2,4.8-4.7,4.8H9.4c-2.5,0-4.7-2.2-4.7-4.7c0-2.4,1.6-4.3,3.7-4.7c0.1-0.3,0.1-0.6,0.2-0.9  c-0.6-0.8-0.9-1.7-0.9-2.8c0-2.6,2.2-4.8,4.8-4.8c2.4,0,4.4,1.8,4.7,4.2c1.2-0.8,2.6-1.3,4.2-1.3c4,0,7.3,3.3,7.3,7.3  C28.7,20.6,28.6,21.2,28.3,21.9z M9.8,15.3c1-1,2.3-1.6,3.8-1.6c0.6,0,1.1,0.1,1.7,0.3c-0.2-1.3-1.4-2.4-2.8-2.4  c-1.5,0-2.8,1.3-2.8,2.8C9.7,14.7,9.8,15,9.8,15.3z M26.4,21.4c0.2-0.5,0.3-1,0.3-1.6c0-3-2.3-5.3-5.3-5.3c-1.6,0-3.1,0.7-4.1,2  c-0.2,0.2-0.4,0.3-0.6,0.3c0,0,0,0-0.1,0c-0.3,0-0.5-0.1-0.7-0.2c-0.3-0.3-0.6-0.5-1-0.6c-0.4-0.2-0.8-0.2-1.2-0.2  c-1,0-1.9,0.4-2.5,1.1c-0.4,0.5-0.7,1.1-0.8,1.8c0,0.1,0,0.2,0,0.3c0,0.6-0.4,1-1,1c-1.4,0-2.6,1.2-2.6,2.7c0,1.5,1.3,2.8,2.7,2.8  h14.3c1.4,0,2.7-1.3,2.7-2.7c0-0.3,0-0.5,0-0.7C26.3,21.9,26.3,21.6,26.4,21.4z"></path></svg>