<svg height='300px' width='300px'  fill="#000000" xmlns="http://www.w3.org/2000/svg" xmlns:xlink="http://www.w3.org/1999/xlink" version="1.1" x="0px" y="0px" viewBox="0 0 100 100" enable-background="new 0 0 100 100" xml:space="preserve"><g><path d="M41.475,30.064c-0.028,0-0.056,0.028-0.113,0.028c-7.878,0.113-14.265,6.442-14.35,14.298   c-7.034,0.057-12.746,5.765-12.746,12.772c0,7.064,5.768,12.772,12.858,12.772h45.75c7.092,0,12.859-5.708,12.859-12.772   c0-6.979-5.684-12.659-12.719-12.744c-2.334-4.917-7.314-8.364-13.139-8.364c-2.055,0-3.969,0.508-5.74,1.271   c-2.533-4.323-7.175-7.262-12.55-7.262C41.559,30.064,41.531,30.064,41.475,30.064L41.475,30.064z M41.587,31.647   c0.028,0,0.057,0,0.084,0c5.008,0.028,9.313,2.882,11.452,6.979c0.197,0.367,0.703,0.537,1.07,0.367   c1.715-0.848,3.629-1.328,5.684-1.328c5.402,0,10.045,3.25,12.014,7.884c0.113,0.283,0.422,0.48,0.732,0.452   c0.225,0,0.309-0.028,0.252-0.028c6.246,0,11.283,5.03,11.283,11.19c0,6.188-5.037,11.189-11.283,11.189h-45.75   c-6.246,0-11.283-5.001-11.283-11.189c0-6.16,5.037-11.19,11.283-11.19c0.169,0,0.366,0.057,0.647,0.057   c0.422,0.028,0.844-0.367,0.844-0.819c-0.028-0.226-0.028-0.452-0.028-0.678C28.588,37.411,34.384,31.647,41.587,31.647   L41.587,31.647z"></path></g></svg>