<svg height='300px' width='300px'  fill="#000000" xmlns="http://www.w3.org/2000/svg" xmlns:xlink="http://www.w3.org/1999/xlink" version="1.1" x="0px" y="0px" viewBox="0 0 100 100" enable-background="new 0 0 100 100" xml:space="preserve"><line fill="none" stroke="#000000" stroke-width="6" stroke-linecap="round" stroke-linejoin="round" stroke-miterlimit="10" x1="25.3" y1="75.7" x2="25.3" y2="84.7"></line><line fill="none" stroke="#000000" stroke-width="6" stroke-linecap="round" stroke-linejoin="round" stroke-miterlimit="10" x1="41.8" y1="82.1" x2="41.8" y2="91.1"></line><line fill="none" stroke="#000000" stroke-width="6" stroke-linecap="round" stroke-linejoin="round" stroke-miterlimit="10" x1="58.2" y1="76.7" x2="58.2" y2="85.7"></line><line fill="none" stroke="#000000" stroke-width="6" stroke-linecap="round" stroke-linejoin="round" stroke-miterlimit="10" x1="74.7" y1="82" x2="74.7" y2="91"></line><path fill="none" stroke="#000000" stroke-width="6" stroke-linecap="round" stroke-linejoin="round" stroke-miterlimit="10" d="  M10.7,60C9,57.8,8,55,8,52c0-7.4,6-13.3,13.3-13.3c0.7,0,1.3,0.1,2,0.2c0-0.5-0.1-1.1-0.1-1.6c0-10.5,8.5-18.9,18.9-18.9  c9,0,16.5,6.3,18.4,14.7c1.3-0.4,2.7-0.6,4.1-0.6c6.5,0,12,4.1,14.1,9.9c0.8-0.2,1.6-0.3,2.4-0.3c6,0,10.9,4.9,10.9,10.9  c0,2.8-1,5.3-2.8,7.2L10.7,60z"></path></svg>