<svg height='300px' width='300px'  fill="#000000" xmlns="http://www.w3.org/2000/svg" xmlns:xlink="http://www.w3.org/1999/xlink" version="1.1" x="0px" y="0px" viewBox="0 0 100 100" enable-background="new 0 0 100 100" xml:space="preserve"><g><path fill="#000000" d="M50.125-107.817c-11.472,0-20.806,9.334-20.806,20.806c0,11.473,9.334,20.806,20.806,20.806   c11.474,0,20.807-9.333,20.807-20.806C70.932-98.483,61.599-107.817,50.125-107.817z M50.125-72.143   c-8.198,0-14.868-6.67-14.868-14.869c0-8.198,6.67-14.869,14.868-14.869c8.199,0,14.869,6.671,14.869,14.869   C64.994-78.812,58.324-72.143,50.125-72.143z"></path><path fill="#000000" d="M50-110.974c1.639,0,3-1.33,3-2.968v-15.09c0-1.639-1.361-2.968-3-2.968c-1.64,0-3,1.33-3,2.968v15.09   C47-112.304,48.36-110.974,50-110.974z"></path><path fill="#000000" d="M50-63.974c-1.64,0-3,1.329-3,2.969v15.089c0,1.64,1.36,2.969,3,2.969c1.639,0,3-1.329,3-2.969v-15.089   C53-62.645,51.639-63.974,50-63.974z"></path><path fill="#000000" d="M91.683-90H76.594c-1.64,0-2.969,0.861-2.969,2.5c0,1.64,1.329,2.5,2.969,2.5h15.089   c1.64,0,2.969-0.86,2.969-2.5C94.651-89.139,93.322-90,91.683-90z"></path><path fill="#000000" d="M26.625-87.5c0-1.639-1.329-2.5-2.968-2.5H8.567c-1.64,0-2.968,0.861-2.968,2.5c0,1.64,1.329,2.5,2.968,2.5   h15.09C25.296-85,26.625-85.86,26.625-87.5z"></path><path fill="#000000" d="M71.923-106.304c0.759,0,1.52-0.29,2.1-0.87l4.67-4.67c1.16-1.16,1.16-3.039,0-4.199   c-1.159-1.159-3.039-1.159-4.198,0.001l-4.67,4.67c-1.159,1.159-1.159,3.04,0,4.199C70.403-106.593,71.163-106.304,71.923-106.304z   "></path><path fill="#000000" d="M26.228-67.774l-4.671,4.671c-1.159,1.158-1.159,3.038,0,4.196c0.581,0.58,1.339,0.87,2.099,0.87   s1.52-0.29,2.1-0.87l4.67-4.671c1.159-1.158,1.159-3.037-0.001-4.196C29.266-68.934,27.387-68.935,26.228-67.774z"></path><path fill="#000000" d="M74.021-67.774c-1.16-1.159-3.039-1.16-4.198,0c-1.158,1.159-1.158,3.038,0.001,4.197l4.67,4.67   c0.579,0.58,1.339,0.87,2.099,0.87s1.52-0.29,2.1-0.87c1.159-1.158,1.159-3.039-0.001-4.197L74.021-67.774z"></path><path fill="#000000" d="M26.228-107.173c0.579,0.579,1.339,0.869,2.099,0.869s1.52-0.29,2.099-0.87   c1.159-1.159,1.159-3.038-0.001-4.198l-4.67-4.67c-1.159-1.159-3.038-1.159-4.198,0.001c-1.159,1.159-1.159,3.038,0,4.198   L26.228-107.173z"></path></g><g><path fill="#000000" d="M206.881-103.326c0.759,0,1.52-0.29,2.099-0.87l4.669-4.67c1.159-1.159,1.159-3.04-0.001-4.199   c-1.159-1.158-3.039-1.158-4.197,0.001l-4.669,4.67c-1.159,1.16-1.159,3.039,0.001,4.198   C205.361-103.616,206.12-103.326,206.881-103.326z"></path><path fill="#000000" d="M183.5-107.997c1.639,0,2.5-1.329,2.5-2.968v-15.09c0-1.639-0.861-2.968-2.5-2.968s-2.5,1.329-2.5,2.968   v15.09C181-109.325,181.861-107.997,183.5-107.997z"></path><path fill="#000000" d="M160.567-85c0-1.639-1.33-3-2.969-3h-15.09c-1.638,0-2.969,1.361-2.969,3c0,1.641,1.331,3,2.969,3h15.09   C159.237-82,160.567-83.359,160.567-85z"></path><path fill="#000000" d="M160.169-104.195c0.58,0.579,1.339,0.869,2.1,0.869c0.758,0,1.519-0.29,2.099-0.87   c1.159-1.158,1.159-3.039,0-4.198l-4.673-4.669c-1.158-1.159-3.037-1.159-4.196,0c-1.159,1.16-1.159,3.039,0,4.198L160.169-104.195   z"></path><path fill="#000000" d="M223.946-75.05c-1.859-10.47-10.763-18.36-21.568-18.823c-3.516-6.52-10.399-10.967-18.312-10.967   c-11.471,0-20.805,9.334-20.805,20.807c0,1.947,0.285,3.827,0.794,5.615c-3.486,3.197-5.688,7.809-5.688,12.902   c0,9.639,7.841,17.516,17.479,17.516h47.251c7.443,0,13.5-6.094,13.5-13.539C236.597-68.699,230.995-74.611,223.946-75.05z    M169.197-84.033c0-8.199,6.672-14.87,14.869-14.87c4.734,0,8.947,2.231,11.672,5.69c-6.094,1.53-11.3,5.491-14.387,11.07   c-1.768-0.585-3.63-0.89-5.506-0.89c-2.287,0-4.469,0.455-6.474,1.257C169.259-82.512,169.197-83.266,169.197-84.033z M223.097-54   h-47.251c-6.364,0-11.541-5.184-11.541-11.546c0-6.365,5.177-11.546,11.541-11.546c1.936,0,3.851,0.487,5.537,1.412l2.957,1.622   l1.233-3.142c2.574-6.549,8.778-10.781,15.809-10.781c9.086,0,16.539,7.104,16.963,16.174l0.159,3.351l3.307-0.564   c0.472-0.081,0.893-0.12,1.286-0.12c4.17,0,7.563,3.4,7.563,7.57C230.66-57.399,227.267-54,223.097-54z"></path></g><g><path fill="#000000" d="M364.24-97.39c-1.506-8.486-8.896-14.838-17.746-14.838c-6.651,0-12.605,3.566-15.757,9.261   c-1.391-0.461-2.856-0.699-4.329-0.699c-6.328,0-11.656,4.301-13.249,10.129c-3.386,1.58-6.229,4.193-8.089,7.557   c-1.392-0.46-2.856-0.699-4.332-0.699c-7.58,0-13.746,6.258-13.746,13.84c0,7.58,6.166,13.84,13.746,13.84h37.168   c6.8,0,11.929-5.246,11.929-12.194c0-1.609-0.241-3.806-0.683-4.806h14.42c5.855,0,10.619-4.85,10.619-10.705   C374.191-92.336,369.785-97.043,364.24-97.39z M345.166-71.359c0,4.428-2.987,7.359-7.26,7.359h-37.168   c-5.004,0-9.077-3.999-9.077-9.004c0-5.007,4.073-9.043,9.077-9.043c1.524,0,3.03,0.403,4.356,1.131l2.326,1.285l0.97-2.466   c0.938-2.385,2.488-4.287,4.431-5.741C313.794-81.204,319.506-76,326.408-76h17.848C344.823-75,345.166-73.076,345.166-71.359z    M363.572-81h-37.164c-5.006,0-9.078-3.994-9.078-8.999s4.072-9.037,9.078-9.037c1.522,0,3.027,0.404,4.354,1.131l2.326,1.285   l0.97-2.463c2.024-5.151,6.905-8.478,12.437-8.478c7.146,0,13.008,5.589,13.342,12.72l0.123,2.64l2.603-0.446   c0.371-0.062,0.702-0.093,1.011-0.093c3.281,0,5.95,2.589,5.95,5.87C369.522-83.592,366.854-81,363.572-81z"></path><path fill="#000000" d="M309.028-100.019c0-2.86-2.105-5.383-4.848-5.807c-0.965-4.105-4.639-7.191-9.01-7.191   c-3.229,0-6.138,1.601-7.812,4.251c-0.569-0.141-1.154-0.231-1.744-0.231c-3.981,0-7.22,3.516-7.22,7.497   c0,3.98,3.238,7.499,7.22,7.499h17.685C306.458-94,309.028-96.858,309.028-100.019z M281.973-101.719   c0-2.007,1.634-3.679,3.642-3.679c0.618,0,1.206,0.13,1.746,0.427l1.781,0.967l0.743-1.896c0.861-2.19,2.937-3.608,5.286-3.608   c3.038,0,5.529,2.373,5.671,5.403l0.094,2.017l1.992-0.337c0.142-0.024,0.264-0.035,0.371-0.035c1.187,0,2.151,1.043,2.151,2.23   c0,1.186-0.965,2.229-2.151,2.229h-17.685C283.606-98,281.973-99.711,281.973-101.719z"></path></g><path fill="#000000" d="M633.255-111.116c-2.03-12.488-12.829-21.884-25.79-21.884c-9.777,0-18.517,5.316-23.031,13.776  c-2.116-0.749-4.36-1.138-6.619-1.138c-10.926,0-19.814,8.754-19.814,19.681C558-89.755,566.889-81,577.814-81h13.276l-11.65,16.974  l20.671,0.212l-5.156,21.007l32.602-35.247l-17.917,0.417L611.999-81h20.679c8.379,0,15.196-6.685,15.196-15.063  C647.874-104.25,641.369-110.811,633.255-111.116z M615.916-72.735L604.337-60.21l2.076-8.444l-17.579-0.255L597.107-81h8.771  l-6.18,8.624L615.916-72.735z M632.678-88h-54.863c-7.652,0-13.879-5.562-13.879-13.212c0-7.653,6.227-13.545,13.879-13.545  c2.328,0,4.632,0.754,6.659,1.868l2.957,1.705l1.232-3.098c3.06-7.79,10.439-12.801,18.802-12.801  c10.808,0,19.668,8.458,20.174,19.242l0.157,3.358l3.308-0.562c0.575-0.098,1.091-0.143,1.574-0.143c5.105,0,9.26,3.488,9.26,8.594  C641.938-91.489,637.783-88,632.678-88z"></path><g><path fill="#000000" d="M462.963-55.916c-1.378-0.889-3.215-0.492-4.104,0.886l-2.334,3.619c-0.889,1.378-0.492,3.214,0.886,4.104   c0.498,0.321,1.055,0.475,1.605,0.475c0.975,0,1.93-0.48,2.498-1.359l2.334-3.62C464.737-53.19,464.341-55.027,462.963-55.916z"></path><path fill="#000000" d="M448.688-55.916c-1.379-0.889-3.215-0.492-4.104,0.886l-2.334,3.619c-0.888,1.378-0.492,3.214,0.886,4.104   c0.498,0.321,1.056,0.475,1.606,0.475c0.975,0,1.929-0.48,2.497-1.359l2.336-3.62C450.462-53.19,450.064-55.027,448.688-55.916z"></path><path fill="#000000" d="M494.489-55.916c-1.378-0.889-3.214-0.492-4.104,0.886l-2.334,3.619c-0.888,1.378-0.492,3.214,0.886,4.104   c0.497,0.321,1.056,0.475,1.606,0.475c0.975,0,1.929-0.48,2.498-1.359l2.334-3.62C496.263-53.19,495.867-55.027,494.489-55.916z"></path><path fill="#000000" d="M473.308-72.337c-1.378-0.887-3.216-0.49-4.103,0.886l-4.67,7.239c-0.889,1.377-0.492,3.214,0.885,4.103   c0.498,0.32,1.056,0.476,1.606,0.476c0.976,0,1.93-0.48,2.497-1.36l4.67-7.237C475.081-69.61,474.687-71.448,473.308-72.337z"></path><path fill="#000000" d="M496.824-72.337c-1.378-0.887-3.215-0.49-4.103,0.886l-4.67,7.239c-0.889,1.377-0.493,3.214,0.885,4.103   c0.497,0.32,1.056,0.476,1.606,0.476c0.975,0,1.929-0.48,2.497-1.36l4.67-7.237C498.599-69.61,498.202-71.448,496.824-72.337z"></path><path fill="#000000" d="M433.005-72.337c-1.379-0.887-3.215-0.49-4.103,0.886l-3.325,5.156c-0.89,1.377-0.493,3.214,0.885,4.103   c0.497,0.321,1.056,0.475,1.605,0.475c0.975,0,1.93-0.479,2.497-1.359l3.325-5.154C434.779-69.61,434.384-71.448,433.005-72.337z"></path><path fill="#000000" d="M481.836-62.758c-1.379-0.89-3.215-0.491-4.102,0.886l-4.671,7.238c-0.889,1.377-0.493,3.215,0.886,4.104   c0.497,0.32,1.055,0.475,1.605,0.475c0.976,0,1.93-0.479,2.496-1.36l4.671-7.237C483.61-60.032,483.215-61.869,481.836-62.758z"></path><path fill="#000000" d="M441.069-65.402c-1.377-0.89-3.215-0.492-4.103,0.886l-4.67,7.238c-0.889,1.376-0.493,3.215,0.885,4.104   c0.498,0.32,1.056,0.474,1.606,0.474c0.975,0,1.93-0.48,2.497-1.359l4.67-7.238C442.844-62.676,442.447-64.514,441.069-65.402z"></path><path fill="#000000" d="M494.805-105.571c-2.031-12.488-12.83-21.884-25.791-21.884c-9.777,0-18.517,5.316-23.031,13.776   c-2.116-0.749-4.36-1.138-6.62-1.138c-10.926,0-19.814,8.981-19.814,19.909c0,10.925,8.889,19.908,19.814,19.908h4.583   l-1.649,2.461c-0.889,1.379-0.492,3.169,0.884,4.059c0.499,0.319,1.057,0.45,1.607,0.45c0.976,0,1.93-0.397,2.497-1.277L451.01-75   h6.647l-7.164,10.867c-0.897,1.369-0.512,3.164,0.859,4.062c0.503,0.329,1.065,0.461,1.622,0.461c0.969,0,1.918-0.485,2.487-1.356   l8.937-13.586c0.112-0.171,0.205,0.553,0.278-0.447h16.748l-1.649,2.461c-0.889,1.379-0.493,3.169,0.884,4.059   c0.499,0.319,1.057,0.45,1.607,0.45c0.976,0,1.93-0.397,2.497-1.277L488.489-75h5.736c8.38,0,15.197-6.912,15.197-15.291   C509.423-98.478,502.917-105.266,494.805-105.571z M494.226-82h-54.863c-7.651,0-13.878-5.789-13.878-13.44   c0-7.653,6.227-13.659,13.878-13.659c2.328,0,4.632,0.698,6.66,1.811l2.956,1.676l1.233-3.112   c3.06-7.79,10.439-12.808,18.802-12.808c10.806,0,19.667,8.454,20.174,19.238l0.157,3.356l3.307-0.563   c0.577-0.098,1.092-0.144,1.574-0.144c5.106,0,9.261,3.715,9.261,8.821C503.486-85.717,499.332-82,494.226-82z"></path></g><g><g><path fill="#000000" d="M79.473,60.923H24.025C12.983,60.923,4,51.939,4,40.898c0-11.043,8.983-20.025,20.025-20.025    c2.283,0,4.552,0.393,6.69,1.149C35.278,13.473,44.11,8.1,53.992,8.1c13.099,0,24.013,9.496,26.064,22.117    c8.199,0.309,14.774,7.074,14.774,15.348C94.831,54.033,87.941,60.923,79.473,60.923z M24.025,26.873    C16.292,26.873,10,33.164,10,40.898c0,7.732,6.292,14.024,14.025,14.024h55.447c5.16,0,9.358-4.198,9.358-9.358    s-4.198-9.357-9.358-9.357c-0.488,0-1.009,0.048-1.591,0.146l-3.343,0.571l-0.159-3.388C73.868,22.638,64.913,14.1,53.992,14.1    c-8.451,0-15.91,5.086-19.002,12.958l-1.246,3.173l-2.988-1.639C28.706,27.467,26.378,26.873,24.025,26.873z"></path></g><g><path fill="#000000" d="M35.035,69.018l2.14-2.139c0.688-0.688,0.688-1.804,0-2.492c-0.688-0.688-1.804-0.688-2.492,0    l-2.139,2.139l-2.139-2.139c-0.688-0.688-1.803-0.688-2.49,0c-0.688,0.688-0.688,1.805,0,2.492l2.138,2.139l-2.138,2.138    c-0.688,0.688-0.688,1.804,0,2.491c0.344,0.344,0.796,0.516,1.246,0.516c0.451,0,0.901-0.172,1.245-0.516l2.138-2.138l2.138,2.138    c0.345,0.344,0.795,0.516,1.246,0.516c0.45,0,0.901-0.172,1.246-0.516c0.688-0.688,0.688-1.804,0-2.491L35.035,69.018z"></path></g><g><path fill="#000000" d="M26.891,82.993l2.138-2.14c0.688-0.688,0.688-1.803,0-2.49c-0.688-0.688-1.803-0.688-2.49,0l-2.14,2.139    l-2.138-2.139c-0.688-0.688-1.804-0.688-2.492,0c-0.688,0.688-0.688,1.803,0,2.49l2.14,2.14l-2.139,2.138    c-0.688,0.688-0.688,1.803,0,2.49c0.345,0.345,0.795,0.517,1.246,0.517s0.901-0.172,1.246-0.517l2.137-2.137l2.139,2.137    c0.344,0.345,0.794,0.517,1.245,0.517c0.45,0,0.901-0.172,1.245-0.517c0.688-0.688,0.688-1.803,0-2.49L26.891,82.993z"></path></g><g><path fill="#000000" d="M55.356,69.018l2.138-2.139c0.688-0.688,0.688-1.804,0-2.492c-0.688-0.688-1.803-0.688-2.49,0l-2.14,2.139    l-2.138-2.139c-0.688-0.688-1.804-0.688-2.492,0c-0.688,0.688-0.688,1.805,0,2.492l2.14,2.139l-2.139,2.138    c-0.688,0.688-0.688,1.804,0,2.491c0.345,0.344,0.795,0.516,1.246,0.516s0.901-0.172,1.246-0.516l2.137-2.138l2.139,2.138    c0.344,0.344,0.794,0.516,1.245,0.516c0.45,0,0.901-0.172,1.245-0.516c0.688-0.688,0.688-1.804,0-2.491L55.356,69.018z"></path></g><g><path fill="#000000" d="M61.527,83.652l2.138-2.139c0.688-0.688,0.688-1.803,0-2.491c-0.688-0.688-1.803-0.688-2.49,0l-2.14,2.139    l-2.138-2.139c-0.688-0.688-1.804-0.688-2.491,0c-0.688,0.688-0.688,1.804,0,2.491l2.139,2.139l-2.138,2.139    c-0.688,0.688-0.688,1.803,0,2.49c0.344,0.345,0.794,0.517,1.246,0.517c0.45,0,0.901-0.172,1.245-0.517l2.137-2.137l2.139,2.137    c0.344,0.345,0.795,0.517,1.245,0.517c0.451,0,0.901-0.172,1.246-0.517c0.688-0.688,0.688-1.803,0-2.49L61.527,83.652z"></path></g><g><path fill="#000000" d="M77.765,85.855l2.139-2.14c0.688-0.688,0.688-1.804,0-2.491c-0.688-0.688-1.803-0.688-2.491,0    l-2.138,2.139l-2.14-2.139c-0.688-0.688-1.803-0.688-2.491,0s-0.688,1.804,0,2.491l2.139,2.14l-2.138,2.137    c-0.688,0.688-0.688,1.805,0,2.492C70.988,90.828,71.44,91,71.891,91s0.901-0.172,1.245-0.516l2.139-2.139l2.137,2.139    C77.755,90.828,78.206,91,78.656,91c0.451,0,0.902-0.172,1.247-0.516c0.688-0.688,0.688-1.804,0-2.492L77.765,85.855z"></path></g><g><path fill="#000000" d="M88.666,70.559l2.139-2.139c0.688-0.688,0.688-1.803,0-2.49c-0.688-0.689-1.804-0.689-2.491,0    l-2.139,2.138l-2.139-2.138c-0.688-0.689-1.803-0.689-2.491,0c-0.688,0.688-0.688,1.803,0,2.49l2.139,2.139l-2.139,2.138    c-0.688,0.688-0.688,1.804,0,2.491c0.345,0.345,0.796,0.517,1.246,0.517c0.451,0,0.901-0.172,1.246-0.517l2.138-2.137l2.138,2.137    c0.344,0.345,0.794,0.517,1.245,0.517s0.902-0.172,1.246-0.517c0.688-0.688,0.688-1.803,0-2.491L88.666,70.559z"></path></g><g><path fill="#000000" d="M44.346,84.014h3.024c0.973,0,1.762-0.789,1.762-1.762c0-0.974-0.788-1.762-1.762-1.762h-3.023v-3.024    c0-0.974-0.789-1.762-1.762-1.762c-0.973-0.001-1.762,0.788-1.762,1.762v3.024H37.8c-0.973,0-1.762,0.789-1.762,1.762    c0,0.486,0.197,0.928,0.517,1.246c0.318,0.318,0.759,0.516,1.245,0.516h3.023v3.023c0,0.486,0.196,0.926,0.516,1.245    c0.318,0.319,0.76,0.516,1.245,0.516c0.974,0.001,1.763-0.788,1.762-1.761V84.014z"></path></g><g><path fill="#000000" d="M17.039,71.351l3.024-0.001c0.973,0.001,1.762-0.787,1.762-1.76c0-0.975-0.788-1.763-1.762-1.763H17.04    v-3.023c0-0.974-0.789-1.763-1.763-1.763c-0.973,0-1.762,0.789-1.762,1.763v3.024h-3.023C9.52,67.827,8.73,68.616,8.731,69.59    c0,0.486,0.197,0.927,0.516,1.245c0.318,0.319,0.759,0.516,1.245,0.516h3.023v3.023c0,0.486,0.197,0.927,0.516,1.246    c0.319,0.318,0.76,0.516,1.245,0.516c0.975,0.001,1.764-0.788,1.763-1.762V71.351z"></path></g><g><path fill="#000000" d="M71.889,71.351l3.024-0.001c0.973,0.001,1.762-0.787,1.762-1.76c0-0.975-0.788-1.763-1.762-1.763H71.89    v-3.023c0-0.974-0.789-1.763-1.762-1.763s-1.762,0.789-1.762,1.763v3.024h-3.023c-0.974-0.001-1.763,0.788-1.762,1.762    c0,0.486,0.197,0.927,0.516,1.245c0.319,0.319,0.76,0.516,1.246,0.516h3.023v3.023c0,0.486,0.196,0.927,0.516,1.246    c0.318,0.318,0.76,0.516,1.245,0.516c0.974,0.001,1.763-0.788,1.762-1.762V71.351z"></path></g></g></svg>