<svg height='300px' width='300px'  fill="#000000" xmlns="http://www.w3.org/2000/svg" xmlns:xlink="http://www.w3.org/1999/xlink" version="1.1" x="0px" y="0px" viewBox="0 0 100 100" enable-background="new 0 0 100 100" xml:space="preserve"><g><path d="M19.2,46.4c0,7.4,6,13.4,13.4,13.4h4.5c0.1,0.5,0.4,0.8,0.9,1l6.9,2.6L39,76.5c-0.3,0.6-0.1,1.3,0.4,1.7   c0.3,0.2,0.6,0.3,0.9,0.3c0.3,0,0.7-0.1,0.9-0.3L62.5,60c0.1-0.1,0.1-0.1,0.2-0.2h4.8c7.4,0,13.4-6,13.4-13.4   c0-7.2-5.7-13.1-12.9-13.4c-2.9-6.9-9.7-11.5-17.3-11.5c-7.6,0-14.4,4.6-17.3,11.5c-0.3,0-0.5,0-0.8,0C25.2,33,19.2,39,19.2,46.4z    M44.2,71.8l3.9-8.7c0.2-0.4,0.2-0.8,0-1.1c-0.2-0.4-0.4-0.6-0.8-0.8l-6.1-2.3l12.7-10.7l-2,7.2c-0.2,0.7,0.2,1.5,0.9,1.7l6,2.2   L44.2,71.8z M32.6,35.8c0.5,0,1,0,1.5,0.1c0.7,0.1,1.3-0.3,1.5-0.9c2.2-6.4,8.2-10.6,15-10.6c6.7,0,12.7,4.2,14.9,10.5   c0.2,0.6,0.8,1,1.4,0.9c0.1,0,0.3,0,0.4,0c5.8,0,10.5,4.7,10.5,10.5c0,5.8-4.7,10.5-10.5,10.5h-7.1l-5.3-2l2.9-10.2   c0.2-0.6-0.1-1.2-0.5-1.5c-0.5-0.4-1.1-0.4-1.6,0L55,43.6c0,0-0.1,0.1-0.1,0.1L39.2,56.9h-6.6c-5.8,0-10.5-4.7-10.5-10.5   C22.1,40.6,26.8,35.8,32.6,35.8z"></path></g></svg>