<svg height='300px' width='300px'  fill="#000000" xmlns="http://www.w3.org/2000/svg" xmlns:xlink="http://www.w3.org/1999/xlink" version="1.1" x="0px" y="0px" viewBox="0 0 100 100" enable-background="new 0 0 100 100" xml:space="preserve"><path d="M2.502,40.3h60.136c6.654,0,12.068-5.414,12.068-12.067c0-6.654-5.414-12.068-12.068-12.068S50.57,21.578,50.57,28.232  c0,0.552,0.447,1,1,1s1-0.448,1-1c0-5.552,4.517-10.068,10.067-10.068c5.552,0,10.068,4.517,10.068,10.068  c0,5.551-4.517,10.067-10.068,10.067H2.502c-0.552,0-1,0.448-1,1S1.95,40.3,2.502,40.3z"></path><path d="M84.771,48.631H2.5c-0.552,0-1,0.448-1,1s0.448,1,1,1h82.271c6.468,0,11.729,5.262,11.729,11.729  c0,6.469-5.262,11.731-11.729,11.731c-6.466,0-11.727-5.263-11.727-11.731c0-0.553-0.447-1-1-1s-1,0.447-1,1  c0,7.571,6.157,13.731,13.727,13.731c7.57,0,13.729-6.16,13.729-13.731C98.5,54.79,92.341,48.631,84.771,48.631z"></path><path d="M55.628,59.7H2.502c-0.552,0-1,0.447-1,1s0.448,1,1,1h53.126c5.552,0,10.068,4.517,10.068,10.068  c0,5.551-4.516,10.067-10.065,10.067c-5.553,0-10.07-4.518-10.07-10.07c0-0.553-0.448-1-1-1s-1,0.447-1,1  c0,6.655,5.415,12.07,12.07,12.07c6.653,0,12.065-5.413,12.065-12.067S62.282,59.7,55.628,59.7z"></path></svg>